<svg xmlns="http://www.w3.org/2000/svg" version="1.1" height="200px" width="400px"> <g>
  <g>
    <g fill="#fb0a2b">
      <path x="0" y="0" d="M373.98834,63.09513c-2.26027,0.17718 -2.87414,3.27552 -5.78044,5.0611c-5.9677,-4.28084 -8.54214,-1.72697 -14.38687,-0.77073c-4.10266,1.43837 -6.26586,-0.60275 -13.56477,-2.02958c0.98843,3.6412 2.26212,3.66115 2.44063,4.00777c4.32937,0.58485 5.61484,-0.40528 8.40091,2.36356c-3.61629,-3.0554 -6.29084,-0.85913 -11.84348,-3.18566c-1.09821,-0.52217 -0.96263,-0.65215 -3.26274,-1.92681c-0.83433,4.18653 1.17638,7.70078 3.87932,10.07081c1.72016,1.5083 3.14394,2.24561 6.67962,1.61852c1.53126,-0.27158 -2.58486,2.58568 -2.8994,4.60233c1.40166,1.66848 2.28344,2.99769 5.18221,4.62068c-6.36006,-2.24573 -5.86403,-8.62704 -13.17573,-7.45034c-11.76521,1.89341 -12.22192,1.58244 -28.23424,-1.6699c3.81825,10.63291 12.90647,6.041 28.54253,8.29814c-11.18858,-1.04491 -17.56567,0.37815 -23.60989,-1.64421c4.62917,9.09893 16.13399,5.10045 25.74223,4.47021c-10.68724,1.58442 -15.70212,2.36231 -20.32146,0.8478c5.41355,8.73685 15.58125,3.83043 21.52893,1.9525c-4.19442,1.89859 -7.69182,3.7056 -13.87306,3.23705c5.69148,6.43327 12.90236,1.04392 15.51727,-1.05332c-3.29042,3.45435 -6.79515,5.07189 -12.51144,4.29037c-5.22825,3.50943 -5.93459,13.43631 -5.93459,13.43631c0,0 1.1237,-0.02486 1.25885,0.02569c-0.07523,0.03143 -0.3222,0.07875 -0.89918,0.15415c-2.3813,0.31117 -4.12102,0.75144 -5.11248,3.59672c-2.05831,5.90697 4.79921,5.36295 2.92876,0.89918c2.10925,-0.89626 3.30312,-0.51669 4.23899,0.5652c1.39752,1.6156 0.70224,4.40548 -0.07707,6.39702c-0.90259,2.30654 -3.14546,3.86983 -4.98402,5.52353c-1.25854,1.13199 -4.41849,0.90816 -4.08484,2.98014c0.32865,2.04095 -4.23882,4.34401 -2.33787,4.52159c1.90096,0.17758 3.96672,-2.00509 8.50367,-2.85168c2.43474,-0.45432 13.07954,-1.80203 15.60168,-2.45898c5.50887,-1.43492 7.8868,-4.47794 8.88903,-5.85017c1.00223,-1.37223 1.98009,-8.36118 -0.57988,-11.09477c2.60966,1.39942 2.05475,7.85237 1.50563,10.09941c10.23546,0.41034 22.96808,-17.66278 20.21159,-27.51654c1.76296,-2.47989 4.40927,-2.20173 12.43325,-8.83158c-3.43618,-1.034 -1.52381,-0.83251 -2.71423,-0.63392c1.33836,-0.94838 1.7734,-2.74627 2.26392,-5.21042c-3.45033,1.11912 -4.26839,3.9702 -7.48816,4.86809c-3.21978,0.89789 -2.99308,2.15708 -12.40868,1.28454c6.3609,-0.00625 8.13139,0.39787 12.58851,-2.00389c3.05326,-1.74375 4.49006,-6.45679 5.65199,-14.61809c-2.30779,2.50421 -3.82673,3.2216 -5.13817,3.0829c2.49698,-0.24711 4.75987,-2.88922 6.98791,-5.83182c1.17985,-3.87111 -2.58417,-5.99106 -5.29231,-6.24288c-0.16657,-0.01549 -0.31175,-0.01181 -0.46244,0z M318.23921,68.2333c0.35783,3.10995 0.03645,4.75033 3.10859,8.19538c4.69941,3.87041 9.8139,4.03346 9.8139,4.03346c0,0 4.08235,-0.85367 6.1658,-0.89918c1.38823,-0.03032 1.85744,0.05681 2.69387,0.41105c1.32007,0.55908 2.41947,2.02353 3.42422,2.60212c0.28827,-1.30755 2.77094,-3.86097 2.77094,-3.86097c0,0 -2.08022,0.2156 -3.10859,0.05138c-0.96299,-0.15378 -1.86301,-0.59735 -2.77461,-0.95056c-7.48536,-2.90026 -11.25372,-0.50552 -22.09413,-9.58268z M362.50454,72.00985c0.41479,-0.01807 0.91704,0.10289 1.49007,0.43674c0.77139,0.44942 0.30458,2.11268 -0.2826,1.77267c-1.18285,-0.68493 -1.91206,0.20234 -2.87737,-0.30829c-0.03885,0.07175 -0.21422,0.1645 -0.69365,0.23122c-0.77559,0.10792 -0.46708,-0.20418 0.38536,-0.71934c0.17275,-0.1044 0.73381,-1.35879 1.9782,-1.413z M320.80829,76.48006L322.68373,80.77043c0,0 2.09856,0.37052 7.27051,-0.07707c-2.165,-0.67969 -3.98688,-1.01852 -5.78044,-1.9782c-1.10255,-0.36071 -3.3655,-2.2351 -3.3655,-2.2351z M323.22323,116.73761c-0.77008,-0.07808 -1.31211,0.96264 -1.79836,1.56714c-0.42169,0.52424 -0.17547,1.59936 -1.33592,2.13234c-1.47742,0.61255 -1.81114,-0.29663 -2.38925,-0.15415c-2.16245,1.27289 -3.99447,4.79634 -5.74741,4.30505c-1.43688,0.25196 1.49132,0.78924 -1.51576,3.38018c0.85168,0.73986 3.12914,-1.54884 5.19689,-1.90479c2.51304,-0.4326 4.85435,1.82111 6.99892,0.43674c2.07463,-2.48419 3.01127,-5.04045 2.72323,-7.09067c-0.18356,-1.30654 -0.82457,-2.53925 -2.13234,-2.67185z" opacity="0.97"></path>
      <path d="M317.30609,118.81556c-1.23967,-0.57065 -0.85264,-2.47159 -2.31247,-2.7214c-0.43811,0.55383 -0.18205,0.68377 0.30702,0.88944c1.0637,0.51154 0.44094,1.64452 -0.54727,1.67552c-0.98821,0.03099 -1.63396,-0.84396 -1.71182,-1.82024c-0.0195,-1.20699 0.87847,-2.42773 2.04217,-2.73199c1.24154,-0.32461 2.18294,0.73988 2.61278,1.61247c-0.60319,1.34773 -0.61517,2.07872 -0.39041,3.0962z" opacity="0.97"></path>
      <path d="M311.99043,115.31278c0.46453,-0.07567 1.08115,0.36176 1.08115,0.36176c0,0 -0.44675,0.66574 -0.06003,1.80883c-0.90026,-0.28856 -0.50399,-1.13239 -1.05111,-1.35663c-0.33923,-0.13903 -0.66174,0.02099 -0.90096,0.66324c-0.48259,-0.56856 0.1965,-1.35756 0.93099,-1.47721z" opacity="0.97"></path>
    </g>
    <g>
      <g fill="#fb0a2b">
        <g>
          <g>
            <path d="M52.1641,93.42603L52.08611,77.08859L52.08611,75.10002c0,-2.44347 1.05277,-4.04862 3.15831,-4.81545c0.68885,-0.24695 1.42969,-0.37042 2.22252,-0.37042L59.514,69.91415c1.18274,0 2.17053,0.33793 2.96335,1.01378c0.4419,0.38992 0.76683,0.78633 0.97479,1.18924L63.37416,69.99213L64.89483,69.99213L64.81684,81.37765L63.45214,81.45564L63.45214,79.21363c0,-0.84482 -0.24695,-1.51417 -0.74084,-2.00806c-0.49389,-0.49389 -1.20224,-0.74084 -2.12504,-0.74084L56.66762,76.42573c-1.44269,0 -2.41098,0.57837 -2.90487,1.73512c-0.16896,0.37692 -0.25344,0.80582 -0.25344,1.28672L53.60678,90.26772c0,1.63764 0.57188,2.57994 1.71563,2.82688c0.31193,0.06499 0.61737,0.09748 0.9163,0.09748L60.8592,93.19208c0.81882,0 1.45568,-0.20471 1.91058,-0.61412c0.4549,-0.40941 0.68235,-0.92605 0.68235,-1.54991L63.47164,89.60486c0,-0.4809 -0.03249,-1.24123 -0.09748,-2.281L64.77785,87.20689c0,0.67585 0.0065,1.41019 0.0195,2.20302L64.81684,94.4788c0,2.69041 -0.78633,4.36705 -2.35899,5.0299c-0.49389,0.20795 -0.98778,0.31193 -1.48168,0.31193L59.92341,99.82064L59.06559,99.84013L57.85686,99.85963L56.55064,99.85963c-2.92436,0 -4.38654,-1.66364 -4.38654,-4.99091L52.1641,93.42603z"></path>
            <path d="M70.02221,96.27241L69.98322,77.18607c0,-0.4809 -0.22745,-0.72134 -0.68235,-0.72134L67.33179,76.46472L67.37079,69.99213L74.33077,69.91415L74.29178,76.26977c-0.36392,0.013 -0.68885,0.02599 -0.97479,0.03899c-0.55888,0.02599 -0.98129,0.03899 -1.26722,0.03899c-0.40291,0 -0.60437,0.22745 -0.60437,0.68235L71.4454,90.95007c0,0.84482 0.25994,1.47518 0.77983,1.89109c0.36392,0.31193 0.79933,0.4679 1.30622,0.4679L77.60606,93.30906c0.9228,0 1.55966,-0.4419 1.91058,-1.32571c0.11697,-0.29893 0.17546,-0.60437 0.17546,-0.9163L79.6921,88.12319L79.65311,79.15514L79.65311,76.97161c0,-0.41591 -0.25344,-0.62386 -0.76033,-0.62386L76.98219,76.34775L76.82623,69.95314L83.76672,69.91415L83.8447,76.34775c-0.31193,0.013 -0.59462,0.02275 -0.84807,0.02924c-0.25344,0.0065 -0.50364,0.00975 -0.75059,0.00975L81.71966,76.38674c-0.38992,0 -0.58487,0.22745 -0.58487,0.68235L81.23227,91.12553L81.25176,96.15544c0,1.32571 -0.15272,2.19977 -0.45815,2.62218c-0.30543,0.42241 -0.64661,0.70835 -1.02353,0.85781c-0.37692,0.14947 -0.85781,0.2242 -1.44269,0.2242L73.00506,99.85963c-1.98857,0 -2.98285,-1.19574 -2.98285,-3.58722z"></path>
            <path d="M87.9973,76.34775c-0.70185,0 -1.05277,0.42241 -1.05277,1.26722L86.94452,81.72858L85.59932,81.72858L85.59932,70.03112c3.35327,-0.07798 7.66183,-0.11697 12.92569,-0.11697L98.525,81.12421L97.1798,81.08522L97.1798,77.38102c0,-0.66286 -0.22095,-1.03328 -0.66286,-1.11126c-0.14297,-0.02599 -0.29893,-0.03899 -0.4679,-0.03899L93.10518,76.23078c-0.24695,0 -0.37042,0.14297 -0.37042,0.42891c0,0 0,0.24045 0,0.72134L92.65678,91.78839L92.65678,92.58771c0,0.22095 0.05199,0.36392 0.15597,0.42891c0.10398,0.06499 0.27944,0.09748 0.52639,0.09748L95.73711,93.1141L95.73711,99.85963L88.15326,99.85963L88.19225,93.19208c0.38992,0 0.75384,-0.0065 1.09176,-0.0195L90.66821,93.15309c0.36392,0 0.54588,-0.27944 0.54588,-0.83832L91.2141,76.81565c0,-0.31193 -0.14297,-0.4679 -0.42891,-0.4679L87.9973,76.34775z"></path>
            <path x="0" y="0" d="M103.43793,77.06909c0,-0.40291 -0.29244,-0.60437 -0.87731,-0.60437L102.05373,76.46472c-0.25994,0 -0.54588,-0.00325 -0.85781,-0.00975c-0.31193,-0.0065 -0.66935,-0.01625 -1.07227,-0.02924L100.12366,69.95314c1.13075,0 2.0568,-0.00325 2.77815,-0.00975c0.72134,-0.0065 1.30946,-0.00975 1.76437,-0.00975L107.20061,69.91415L108.1949,69.91415c3.24929,0 5.29635,1.60515 6.14116,4.81545c0.22095,0.84482 0.33143,1.78061 0.33143,2.80739c0,1.02678 -0.08448,1.86509 -0.25344,2.51495c-0.16896,0.64986 -0.39316,1.20874 -0.6726,1.67663c-0.27944,0.4679 -0.59462,0.84807 -0.94554,1.1405c-0.35092,0.29244 -0.70835,0.52314 -1.07227,0.6921c-0.62386,0.31193 -1.28022,0.50039 -1.96907,0.56538L109.75456,84.24353c0.63686,0.18196 1.1535,0.55563 1.54991,1.12101c0.39641,0.56538 0.59462,1.27047 0.59462,2.11529L111.89909,92.6657c0,0.37692 0.09748,0.65311 0.29244,0.82857c0.19496,0.17546 0.42241,0.26319 0.68235,0.26319c0.25994,0 0.48414,-0.11373 0.6726,-0.34118c0.18846,-0.22745 0.28269,-0.46465 0.28269,-0.7116c0,0 0,-0.30543 0,-0.9163c0,-0.36392 0.00325,-0.74734 0.00975,-1.15025c0.0065,-0.40291 0.01625,-0.85781 0.02924,-1.3647L115.21337,89.23444L115.21337,96.38939c0,1.67663 -0.36392,2.80739 -1.09176,3.39226c-0.32493,0.25994 -0.77333,0.38992 -1.34521,0.38992c-1.44269,0 -2.23551,-0.83832 -2.37848,-2.51495c-0.03899,-0.4679 -0.05849,-0.9293 -0.05849,-1.3842L110.4759,87.63579c0,-1.11776 -0.39641,-1.95607 -1.18924,-2.51495c-0.57188,-0.38992 -1.17624,-0.58487 -1.81311,-0.58487L105.446,84.53597c-0.24695,0 -0.37042,0.11697 -0.37042,0.35092L105.07558,85.47176L105.03659,91.65192L105.03659,92.35376c0,0.53288 0.22745,0.79933 0.68235,0.79933L108.11691,93.15309L108.07792,99.78165L100.16265,99.89862L100.16265,93.15309L102.6776,93.15309c0.55888,0 0.83832,-0.33143 0.83832,-0.99428L103.51592,91.39847L103.43793,77.82943z M105.52398,76.42573c-0.35092,0 -0.52639,0.21445 -0.52639,0.64336c0,0.11697 -0.00325,0.43216 -0.00975,0.94554c-0.0065,0.51339 -0.00975,1.1405 -0.00975,1.88134L104.9586,81.68959L104.9586,82.72286c0,0.24695 0.11697,0.37042 0.35092,0.37042L106.92767,83.11278L109.30616,83.13227c1.41669,0 2.44347,-0.58487 3.08033,-1.75462c0.23395,-0.42891 0.35092,-0.96504 0.35092,-1.6084c0,-0.64336 -0.10073,-1.17624 -0.30218,-1.59865c-0.20146,-0.42241 -0.44515,-0.75709 -0.73109,-1.00403c-0.51989,-0.4679 -1.06577,-0.70185 -1.63764,-0.70185L105.52398,76.42573z"></path>
            <path d="M119.93134,93.15309c0.55888,0 0.83832,-0.50689 0.83832,-1.52067L120.76966,78.10237c0,-0.8968 -0.26644,-1.42319 -0.79933,-1.57916c-0.32493,-0.09098 -0.9098,-0.13647 -1.75462,-0.13647L117.10446,76.38674L117.10446,69.99213c1.16975,-0.013 2.2875,-0.02599 3.35327,-0.03899L124.43486,69.91415L130.82947,69.91415L130.7125,79.89598L129.26981,79.93497c0.03899,-0.27294 0.05849,-0.74084 0.05849,-1.40369c0,-0.66286 -0.09748,-1.11776 -0.29244,-1.3647c-0.19496,-0.24695 -0.4679,-0.4419 -0.81882,-0.58487c-0.62386,-0.23395 -1.46218,-0.35092 -2.51495,-0.35092c-1.05277,0 -1.78386,0.05199 -2.19327,0.15597c-0.40941,0.10398 -0.7116,0.22745 -0.90655,0.37042c-0.25994,0.19496 -0.38992,0.50689 -0.38992,0.9358L122.21235,83.73664L125.00024,83.73664c0.22095,0 0.42891,-0.08123 0.62386,-0.2437c0.19496,-0.16246 0.30218,-0.39641 0.32168,-0.70185c0.0195,-0.30543 0.02924,-0.61412 0.02924,-0.92605c0,0 0,-0.29893 0,-0.8968c0,-0.33793 -0.0065,-0.68235 -0.0195,-1.03328L127.39822,79.85699L127.51519,89.60486L126.13099,89.60486L126.13099,88.29865c-0.013,-0.36392 -0.02599,-0.73434 -0.03899,-1.11126c-0.02599,-0.77983 -0.11373,-1.27372 -0.26319,-1.48168c-0.14947,-0.20795 -0.29569,-0.35092 -0.43865,-0.42891c-0.22095,-0.12997 -0.42891,-0.19496 -0.62386,-0.19496c-0.41591,0 -0.85131,0.00975 -1.30622,0.02924c-0.4549,0.0195 -0.87081,0.03574 -1.24773,0.04874c-0.013,0.9358 -0.0195,1.81311 -0.0195,2.63193L122.17335,89.9168L122.17335,91.51545c0,0.61087 0.12347,1.02678 0.37042,1.24773c0.36392,0.31193 0.70835,0.4679 1.03328,0.4679L128.8409,93.23107c0.9358,0 1.40369,-0.57188 1.40369,-1.71563L130.2251,89.93629c-0.013,-0.28594 -0.0195,-0.57188 -0.0195,-0.85781L131.6288,89.03949L131.39485,99.97661c-2.24851,-0.12997 -3.78868,-0.19496 -4.62049,-0.19496L124.92226,99.78165L123.96696,99.78165L120.32126,99.82064c-0.94879,0.013 -1.93008,0.02599 -2.94386,0.03899L117.3774,93.15309L119.93134,93.15309z"></path>
            <path d="M143.88188,79.18438c0,0 -0.03087,-0.18034 -0.0926,-0.54101c-0.06174,-0.36067 -0.1316,-0.76521 -0.20958,-1.21361c-0.07798,-0.4484 -0.12997,-0.73434 -0.15597,-0.85781c-0.02599,-0.12347 -0.11697,-0.18521 -0.27294,-0.18521L141.55214,76.38674L141.43516,69.99213L147.98573,69.91415L148.02473,76.42573L145.21734,76.42573c-0.23395,0 -0.32493,0.12997 -0.27294,0.38992c0.013,0.03899 0.05524,0.26319 0.12672,0.6726c0.07148,0.40941 0.16571,0.94229 0.28269,1.59865c0.11697,0.65636 0.24695,1.3972 0.38992,2.22252c0.14297,0.82532 0.34118,1.95607 0.59462,3.39226c0.25344,1.43619 0.60112,3.428 1.04302,5.97545L151.16354,74.90506L152.48925,74.94406L155.0432,89.99478c1.15675,-5.19887 1.89109,-8.4839 2.20302,-9.8551c0.31193,-1.3712 0.51339,-2.25826 0.60437,-2.66117c0.09098,-0.40291 0.14297,-0.62386 0.15597,-0.66286c0.03899,-0.20795 -0.05849,-0.31193 -0.29244,-0.31193L155.00421,76.50372L155.00421,69.91415L161.28184,69.91415L161.24285,76.46472L159.95613,76.46472c-0.27294,0 -0.43541,0.11697 -0.48739,0.35092c0,0.013 -0.05199,0.24695 -0.15597,0.70185c-0.10398,0.4549 -0.2372,1.04627 -0.39966,1.77411c-0.16246,0.72784 -0.34767,1.55966 -0.55563,2.49546c-0.20795,0.9358 -0.41916,1.89434 -0.63361,2.87562c-0.21445,0.98129 -0.42566,1.94308 -0.63361,2.88537c-0.20795,0.94229 -0.39641,1.79036 -0.56538,2.5442c-0.33793,1.50767 -0.53288,2.35899 -0.58487,2.55394c-0.07798,0.33793 0.0065,0.50689 0.25344,0.50689L158.35748,93.15309L158.39647,99.78165L152.48925,99.97661L152.2553,93.1141L153.89295,93.1141c0.19496,0 0.28269,-0.17546 0.26319,-0.52639c-0.0195,-0.35092 -0.81557,-4.5945 -2.38823,-12.73073L151.57295,79.85699c-1.10476,4.1201 -1.8196,6.81052 -2.14453,8.07124c-0.32493,1.26073 -0.56863,2.20302 -0.73109,2.82688c-0.16246,0.62386 -0.29244,1.13075 -0.38992,1.52067c-0.09748,0.38992 -0.15922,0.61087 -0.18521,0.66286c-0.05199,0.14297 0.04549,0.21445 0.29244,0.21445L150.24724,93.15309L150.24724,99.89862L143.57969,99.78165L143.57969,93.19208L145.97767,93.19208c0.25994,0 0.32493,-0.26644 0.19496,-0.79933c-0.11697,-0.58487 -0.33468,-1.8196 -0.65311,-3.70419c-0.31843,-1.88459 -0.56213,-3.30453 -0.73109,-4.25982c-0.16896,-0.95529 -0.33143,-1.88784 -0.48739,-2.79764c-0.15597,-0.9098 -0.29569,-1.72537 -0.41916,-2.44672z"></path>
            <path d="M165.37595,93.15309c0.55888,0 0.83832,-0.50689 0.83832,-1.52067L166.21427,78.10237c0,-0.8968 -0.26644,-1.42319 -0.79933,-1.57916c-0.32493,-0.09098 -0.9098,-0.13647 -1.75462,-0.13647L162.54906,76.38674L162.54906,69.99213c1.16975,-0.013 2.2875,-0.02599 3.35327,-0.03899L169.87947,69.91415L176.27408,69.91415L176.1571,79.89598L174.71442,79.93497c0.03899,-0.27294 0.05849,-0.74084 0.05849,-1.40369c0,-0.66286 -0.09748,-1.11776 -0.29244,-1.3647c-0.19496,-0.24695 -0.4679,-0.4419 -0.81882,-0.58487c-0.62386,-0.23395 -1.46218,-0.35092 -2.51495,-0.35092c-1.05277,0 -1.78386,0.05199 -2.19327,0.15597c-0.40941,0.10398 -0.7116,0.22745 -0.90655,0.37042c-0.25994,0.19496 -0.38992,0.50689 -0.38992,0.9358L167.65695,83.73664L170.44484,83.73664c0.22095,0 0.42891,-0.08123 0.62386,-0.2437c0.19496,-0.16246 0.30218,-0.39641 0.32168,-0.70185c0.0195,-0.30543 0.02924,-0.61412 0.02924,-0.92605c0,0 0,-0.29893 0,-0.8968c0,-0.33793 -0.0065,-0.68235 -0.0195,-1.03328L172.84282,79.85699L172.9598,89.60486L171.5756,89.60486L171.5756,88.29865c-0.013,-0.36392 -0.02599,-0.73434 -0.03899,-1.11126c-0.02599,-0.77983 -0.11373,-1.27372 -0.26319,-1.48168c-0.14947,-0.20795 -0.29569,-0.35092 -0.43865,-0.42891c-0.22095,-0.12997 -0.42891,-0.19496 -0.62386,-0.19496c-0.41591,0 -0.85131,0.00975 -1.30622,0.02924c-0.4549,0.0195 -0.87081,0.03574 -1.24773,0.04874c-0.013,0.9358 -0.0195,1.81311 -0.0195,2.63193L167.61796,89.9168L167.61796,91.51545c0,0.61087 0.12347,1.02678 0.37042,1.24773c0.36392,0.31193 0.70835,0.4679 1.03328,0.4679L174.28551,93.23107c0.9358,0 1.40369,-0.57188 1.40369,-1.71563L175.66971,89.93629c-0.013,-0.28594 -0.0195,-0.57188 -0.0195,-0.85781L177.0734,89.03949L176.83945,99.97661c-2.24851,-0.12997 -3.78868,-0.19496 -4.62049,-0.19496L170.36686,99.78165L169.41157,99.78165L165.76586,99.82064c-0.94879,0.013 -1.93008,0.02599 -2.94386,0.03899L162.822,93.15309L165.37595,93.15309z"></path>
            <path x="0" y="0" d="M181.14801,76.38674c-0.11697,0 -0.64336,0.05199 -1.57916,0.15597L179.23743,70.1481c3.63921,-0.15597 5.90721,-0.23395 6.80402,-0.23395c0.8968,0 1.72213,0.10723 2.47596,0.32168c0.75384,0.21445 1.46218,0.60112 2.12504,1.16c1.55966,1.33871 2.33949,3.37277 2.33949,6.10217c0,3.01534 -0.63686,5.0364 -1.91058,6.06318c-0.31193,0.25994 -0.58487,0.48739 -0.81882,0.68235c2.85938,0.83182 4.28907,3.43125 4.28907,7.7983c0,3.84716 -1.29972,6.28413 -3.89915,7.31091c-0.87081,0.33793 -1.87809,0.50689 -3.02184,0.50689L179.68583,99.85963L179.64684,93.23107L181.63541,93.23107c0.50689,0 0.81882,-0.31193 0.9358,-0.9358c0.03899,-0.16896 0.05849,-0.31193 0.05849,-0.42891L182.62969,78.49228c0,-1.40369 -0.49389,-2.10554 -1.48168,-2.10554z M184.07238,91.7104c0,0.54588 0.12997,0.9163 0.38992,1.11126c0.36392,0.27294 0.74734,0.40941 1.15025,0.40941L187.15271,93.23107c1.98857,0 3.19081,-0.08448 3.60671,-0.25344c0.41591,-0.16896 0.75384,-0.40941 1.01378,-0.72134c0.50689,-0.63686 0.76033,-1.63114 0.76033,-2.98285c0,-1.16975 -0.35742,-2.14453 -1.07227,-2.92436c-0.68885,-0.76683 -1.60515,-1.15025 -2.7489,-1.15025L184.9107,85.19882c-0.40291,0 -0.63686,0.07798 -0.70185,0.23395c-0.09098,0.18196 -0.13647,0.4679 -0.13647,0.85781z M184.11137,83.09328c0.013,0.28594 0.05524,0.47765 0.12672,0.57512c0.07148,0.09748 0.25669,0.14622 0.55563,0.14622L188.06901,83.81462c1.33871,0 2.3005,-0.66935 2.88537,-2.00806c0.23395,-0.51989 0.35092,-1.12426 0.35092,-1.81311c0,-0.68885 -0.08123,-1.22498 -0.2437,-1.6084c-0.16246,-0.38342 -0.37367,-0.70185 -0.63361,-0.95529c-0.25994,-0.25344 -0.54588,-0.4484 -0.85781,-0.58487c-0.31193,-0.13647 -0.61087,-0.2372 -0.8968,-0.30218c-0.38992,-0.10398 -0.81882,-0.15597 -1.28672,-0.15597L185.30061,76.38674c-0.35092,0 -0.63361,0.08123 -0.84807,0.2437c-0.21445,0.16246 -0.34118,0.49064 -0.38017,0.98454L184.11137,83.09328z"></path>
            <path d="M207.58426,92.11982L207.81821,77.57598c0,-0.41591 -0.09098,-0.7051 -0.27294,-0.86756c-0.18196,-0.16246 -0.4744,-0.2437 -0.87731,-0.2437L205.14729,76.46472L205.14729,69.91415L209.2219,69.91415c0.22095,0 0.54263,0.01625 0.96504,0.04874c0.42241,0.03249 0.86756,0.06824 1.33546,0.10723c0.4679,0.03899 0.98129,0.07798 1.54016,0.11697L213.10156,76.50372L211.81484,76.50372L214.89517,92.88015L218.52138,76.5817L217.41012,76.5817L217.56609,70.07012c0.4809,-0.02599 0.94229,-0.05199 1.3842,-0.07798c0.85781,-0.05199 1.67663,-0.07798 2.45647,-0.07798L225.18893,70.03112L224.76002,76.50372c-0.24695,0 -0.48739,-0.0065 -0.72134,-0.0195c0,0 -0.34443,-0.0065 -1.03328,-0.0195c-0.24695,0 -0.4419,0.08773 -0.58487,0.26319c-0.14297,0.17546 -0.21445,0.39316 -0.21445,0.65311L221.91364,92.15881c0,0.63686 0.35092,0.95529 1.05277,0.95529L224.838,93.1141L224.68204,99.85963L217.64407,99.82064L217.76104,93.15309L219.43768,93.15309c0.64986,0 0.97479,-0.38342 0.97479,-1.15025c0,-0.36392 0.11697,-5.5303 0.35092,-15.49913L220.08104,76.54271L215.46054,96.35039L214.17382,96.38939L210.29417,76.54271L209.33888,76.54271c-0.19496,8.2662 -0.29244,12.90619 -0.29244,13.91997c0,1.01378 0.0065,1.58565 0.0195,1.71563c0.013,0.12997 0.02275,0.25994 0.02924,0.38992c0.0065,0.12997 0.03574,0.24045 0.08773,0.33143c0.11697,0.19496 0.26644,0.29244 0.4484,0.29244c0.18196,0 0.94879,0.02599 2.3005,0.07798L211.58089,99.97661L204.38695,99.82064L204.38695,93.15309L206.86292,93.15309c0.29893,0 0.49389,-0.07798 0.58487,-0.23395c0.09098,-0.15597 0.13647,-0.42241 0.13647,-0.79933z"></path>
            <path x="0" y="0" d="M240.98049,76.34775c-1.8196,0.05199 -2.7424,0.07798 -2.7684,0.07798c-0.19496,0 -0.27294,0.11697 -0.23395,0.35092c0,0.06499 0,0.11373 0,0.14622c0,0.03249 0.03899,0.26969 0.11697,0.7116c0.07798,0.4419 0.17871,1.02028 0.30218,1.73512c0.12347,0.71484 0.26644,1.52717 0.42891,2.43697c0.16246,0.9098 0.32818,1.8391 0.49714,2.78789c0.16896,0.94879 0.33793,1.88459 0.50689,2.80739c0.16896,0.9228 0.31843,1.74812 0.4484,2.47596c0.33793,1.89759 0.55238,2.94386 0.64336,3.13882c0.09098,0.19496 0.26644,0.29244 0.52639,0.29244L242.96905,93.30906L243.04704,99.93761L235.8921,99.78165L235.81411,93.27007L238.1731,93.27007c0.32493,0 0.56538,-0.12672 0.72134,-0.38017c0.15597,-0.25344 0.2242,-0.4484 0.20471,-0.58487c-0.0195,-0.13647 -0.05849,-0.38342 -0.11697,-0.74084c-0.05849,-0.35742 -0.13647,-0.82532 -0.23395,-1.40369c-0.09748,-0.57837 -0.20795,-1.24123 -0.33143,-1.98857c-0.12347,-0.74734 -0.25669,-1.52392 -0.39966,-2.32974L232.53883,85.84218L231.23261,92.1978c-0.10398,0.4419 -0.12997,0.75059 -0.07798,0.92605c0.05199,0.17546 0.19496,0.26319 0.42891,0.26319L233.82555,93.38704L233.74756,99.89862L226.55363,99.89862L226.70959,93.30906L228.34724,93.30906c0.67585,0 1.06577,-0.22745 1.16975,-0.68235c0.06499,-0.25994 0.21445,-0.92605 0.4484,-1.99831c0.23395,-1.07227 0.45165,-2.06005 0.65311,-2.96335c0.20146,-0.9033 0.40616,-1.8261 0.61412,-2.7684c0.20795,-0.94229 0.41266,-1.86834 0.61412,-2.77815c0.20146,-0.9098 0.38342,-1.73187 0.54588,-2.46621c0.16246,-0.73434 0.29569,-1.34521 0.39966,-1.8326c0.10398,-0.48739 0.16896,-0.80258 0.19496,-0.94554c0.06499,-0.27294 -0.07148,-0.40941 -0.40941,-0.40941L230.23833,76.46472L230.16034,69.91415L240.9415,69.99213z M232.83126,84.43849L237.78318,84.3995c-0.16896,-0.96179 -0.32493,-1.89759 -0.4679,-2.80739c-0.53288,-3.18431 -0.84157,-4.84145 -0.92605,-4.97142c-0.08448,-0.12997 -0.20471,-0.19496 -0.36067,-0.19496L234.85882,76.42573c-0.23395,0 -0.37692,0.12997 -0.42891,0.38992L232.83126,84.43849z"></path>
            <path d="M247.74551,77.34203c0,-0.55888 -0.25344,-0.83832 -0.76033,-0.83832L244.72367,76.50372c0,-3.58722 0.03899,-5.73175 0.11697,-6.4336c0.49389,-0.02599 0.97479,-0.05199 1.44269,-0.07798c0.9358,-0.05199 1.87809,-0.07798 2.82688,-0.07798c0.83182,0 2.00156,0.02599 3.50924,0.07798L252.26853,76.38674c-0.25994,0.013 -0.50689,0.02275 -0.74084,0.02924c-0.23395,0.0065 -0.4614,0.00975 -0.68235,0.00975L250.26047,76.42573c-0.31193,0 -0.56213,0.11048 -0.75059,0.33143c-0.18846,0.22095 -0.28269,0.53288 -0.28269,0.9358c0,0 -0.05199,4.82195 -0.15597,14.46585c0,0.61087 0.25344,0.9163 0.76033,0.9163L252.50248,93.07511L252.26853,99.78165c-1.3907,0.03899 -2.48571,0.07148 -3.28503,0.09748c-0.79933,0.02599 -1.43294,0.04549 -1.90084,0.05849c-0.4679,0.013 -0.89031,0.02599 -1.26722,0.03899c-0.77983,0.02599 -1.26722,0.03899 -1.46218,0.03899L244.39224,97.28619L244.39224,92.95813L246.94619,92.95813c0.4549,0 0.68235,-0.26644 0.68235,-0.79933L247.72602,79.95446L247.74551,77.34203z"></path>
            <path d="M257.22045,93.1141c0.25994,0 0.38992,-0.24045 0.38992,-0.72134L257.61037,76.85464c0,-0.18196 -0.04224,-0.28594 -0.12672,-0.31193c-0.08448,-0.02599 -0.25669,-0.03899 -0.51664,-0.03899L254.37407,76.50372L254.2571,69.91415L262.32834,69.95314L262.25036,76.46472L259.59893,76.46472c-0.27294,0 -0.42566,0.07148 -0.45815,0.21445c-0.03249,0.14297 -0.04874,0.28594 -0.04874,0.42891L258.99457,89.48789L258.97507,92.15881c0,0.41591 0.08448,0.6791 0.25344,0.78958c0.16896,0.11048 0.40291,0.16571 0.70185,0.16571L261.5875,93.0946L264.14144,93.05561c0,0 0.53938,-0.0065 1.61815,-0.0195c0.68885,0 1.03328,-0.34443 1.03328,-1.03328L266.73438,89.76083c-0.02599,-0.57188 -0.04549,-1.20874 -0.05849,-1.91058L268.07959,87.85025L268.0406,99.85963L254.53004,99.93761L254.53004,93.1141L257.22045,93.1141z"></path>
          </g>
          <g>
            <path d="M30.48677,104.71017c86.39739,-0.78941 172.79478,-0.78941 259.19217,0c-86.39739,0.78941 -172.79478,0.78941 -259.19217,0z"></path>
          </g>
        </g>
        <g>
          <path d="M21.43879,115.79156c-0.42111,0 -0.63166,0.25344 -0.63166,0.76033L20.80712,119.02006L20,119.02006L20,112.00159c2.01196,-0.04679 4.5971,-0.07018 7.75541,-0.07018L27.75541,118.65744L26.94829,118.63404L26.94829,116.41153c0,-0.39771 -0.13257,-0.61997 -0.39771,-0.66675c-0.08578,-0.0156 -0.17936,-0.02339 -0.28074,-0.02339L24.50352,115.72138c-0.14817,0 -0.22225,0.08578 -0.22225,0.25734c0,0 0,0.14427 0,0.43281L24.23448,125.05594L24.23448,125.53554c0,0.13257 0.03119,0.21835 0.09358,0.25734c0.06239,0.03899 0.16766,0.05849 0.31583,0.05849L26.08268,125.85137L26.08268,129.89869L21.53237,129.89869L21.55576,125.89816c0.23395,0 0.4523,-0.0039 0.65506,-0.0117L23.04134,125.87477c0.21835,0 0.32753,-0.16766 0.32753,-0.50299L23.36887,116.0723c0,-0.18716 -0.08578,-0.28074 -0.25734,-0.28074L21.43879,115.79156z"></path>
          <path d="M30.44583,115.86175L28.55084,115.81496L28.55084,112.00159L33.3351,111.90801L33.41698,115.76817L32.00159,115.76817c-0.13257,0 -0.21055,0.04484 -0.23395,0.13452c-0.02339,0.08968 -0.03509,0.17741 -0.03509,0.26319L31.63897,119.52305c0,0.21055 0.07018,0.31583 0.21055,0.31583c0.57707,0.0078 1.10736,0.0117 1.59085,0.0117L34.59842,119.86228c0.21835,0 0.4367,0 0.65506,0c0.27294,0 0.40941,-0.15987 0.40941,-0.4796c-0.0078,-0.57707 -0.0117,-1.09956 -0.0117,-1.56746L35.63949,116.70396c0,-0.35872 -0.0117,-0.58097 -0.03509,-0.66675c-0.03119,-0.14817 -0.17156,-0.22225 -0.42111,-0.22225L34.15392,115.81496L34.20071,112.09517L38.58725,111.9548L38.49367,115.76817c-0.25734,0.02339 -0.48349,0.04679 -0.67845,0.07018c-0.50689,0.04679 -0.79153,0.07018 -0.85391,0.07018c-0.25734,0 -0.38602,0.10528 -0.38602,0.31583L36.48171,125.44196c0,0.07018 0.0039,0.14427 0.0117,0.22225c0.0078,0.07798 0.06629,0.11697 0.17546,0.11697L38.49367,125.78119L38.58725,129.89869L34.29429,129.8519L34.15392,125.92156c0.18716,-0.0078 0.35677,-0.0195 0.50884,-0.03509c0.15207,-0.0156 0.29439,-0.02729 0.42696,-0.03509c0.13257,-0.0078 0.23395,-0.0156 0.30413,-0.02339c0.13257,-0.02339 0.19886,-0.15207 0.19886,-0.38602L35.59271,121.03202c0,-0.20276 -0.12087,-0.30413 -0.36262,-0.30413L32.8672,120.69279L31.9314,120.6811c-0.17936,0 -0.26904,0.07798 -0.26904,0.23395L31.62727,124.37749L31.61557,125.68761c0,0.18716 0.09748,0.28074 0.29244,0.28074L33.39358,125.96835L33.28831,129.80511L28.78479,130.08585L28.59763,125.96835c1.12296,0.03119 1.73902,0.04679 1.8482,0.04679c0.10918,0 0.17546,-0.04094 0.19886,-0.12282c0.02339,-0.08188 0.03509,-0.18521 0.03509,-0.30998L30.77335,116.27116c0,-0.27294 -0.10918,-0.40941 -0.32753,-0.40941z"></path>
          <path d="M41.21918,125.87477c0.33533,0 0.50299,-0.30413 0.50299,-0.9124L41.72217,116.84433c0,-0.53808 -0.15987,-0.85391 -0.4796,-0.94749c-0.19496,-0.05459 -0.54588,-0.08188 -1.05277,-0.08188L39.52305,115.81496L39.52305,111.97819c0.70185,-0.0078 1.3725,-0.0156 2.01196,-0.02339L43.92129,111.9314L47.75806,111.9314L47.68787,117.9205L46.82226,117.94389c0.02339,-0.16376 0.03509,-0.4445 0.03509,-0.84222c0,-0.39771 -0.05849,-0.67065 -0.17546,-0.81882c-0.11697,-0.14817 -0.28074,-0.26514 -0.49129,-0.35092c-0.37432,-0.14037 -0.87731,-0.21055 -1.50897,-0.21055c-0.63166,0 -1.07032,0.03119 -1.31596,0.09358c-0.24565,0.06239 -0.42696,0.13647 -0.54393,0.22225c-0.15597,0.11697 -0.23395,0.30413 -0.23395,0.56148L42.58778,120.2249L44.26052,120.2249c0.13257,0 0.25734,-0.04874 0.37432,-0.14622c0.11697,-0.09748 0.18131,-0.23785 0.19301,-0.42111c0.0117,-0.18326 0.01755,-0.36847 0.01755,-0.55563c0,0 0,-0.17936 0,-0.53808c0,-0.20276 -0.0039,-0.40941 -0.0117,-0.61997L45.6993,117.8971L45.76949,123.74583L44.93897,123.74583L44.93897,122.9621c-0.0078,-0.21835 -0.0156,-0.4406 -0.02339,-0.66675c-0.0156,-0.4679 -0.06824,-0.76423 -0.15792,-0.88901c-0.08968,-0.12477 -0.17741,-0.21055 -0.26319,-0.25734c-0.13257,-0.07798 -0.25734,-0.11697 -0.37432,-0.11697c-0.24955,0 -0.51079,0.00585 -0.78373,0.01755c-0.27294,0.0117 -0.52249,0.02145 -0.74864,0.02924c-0.0078,0.56148 -0.0117,1.08786 -0.0117,1.57916L42.56439,123.93299L42.56439,124.89218c0,0.36652 0.07408,0.61607 0.22225,0.74864c0.21835,0.18716 0.42501,0.28074 0.61997,0.28074L46.56492,125.92156c0.56148,0 0.84222,-0.34313 0.84222,-1.02938L47.39544,123.94469c-0.0078,-0.17156 -0.0117,-0.34313 -0.0117,-0.51469L48.23765,123.4066L48.09728,129.96888c-1.34911,-0.07798 -2.27321,-0.11697 -2.7723,-0.11697L44.21373,129.8519L43.64055,129.8519L41.45313,129.8753c-0.56928,0.0078 -1.15805,0.0156 -1.76632,0.02339L39.68681,125.87477L41.21918,125.87477z"></path>
          <path d="M55.5895,117.49354c0,0 -0.01852,-0.1082 -0.05556,-0.3246c-0.03704,-0.2164 -0.07896,-0.45913 -0.12575,-0.72817c-0.04679,-0.26904 -0.07798,-0.4406 -0.09358,-0.51469c-0.0156,-0.07408 -0.07018,-0.11113 -0.16376,-0.11113L54.19166,115.81496L54.12147,111.97819L58.05182,111.9314L58.07521,115.83835L56.39078,115.83835c-0.14037,0 -0.19496,0.07798 -0.16376,0.23395c0.0078,0.02339 0.03314,0.15792 0.07603,0.40356c0.04289,0.24565 0.09943,0.56538 0.16961,0.95919c0.07018,0.39381 0.14817,0.83832 0.23395,1.33351c0.08578,0.49519 0.20471,1.17364 0.35677,2.03536c0.15207,0.86171 0.36067,2.0568 0.62581,3.58527L59.9585,114.92595L60.75393,114.94935L62.28629,123.97978c0.69405,-3.11932 1.13465,-5.09034 1.32181,-5.91306c0.18716,-0.82272 0.30803,-1.35495 0.36262,-1.5967c0.05459,-0.24175 0.08578,-0.37432 0.09358,-0.39771c0.02339,-0.12477 -0.03509,-0.18716 -0.17546,-0.18716L62.2629,115.88514L62.2629,111.9314L66.02948,111.9314L66.00608,115.86175L65.23405,115.86175c-0.16376,0 -0.26124,0.07018 -0.29244,0.21055c0,0.0078 -0.03119,0.14817 -0.09358,0.42111c-0.06239,0.27294 -0.14232,0.62776 -0.2398,1.06447c-0.09748,0.4367 -0.2086,0.9358 -0.33338,1.49727c-0.12477,0.56148 -0.2515,1.1366 -0.38017,1.72537c-0.12867,0.58877 -0.25539,1.16585 -0.38017,1.73122c-0.12477,0.56538 -0.23785,1.07422 -0.33923,1.52652c-0.20276,0.9046 -0.31973,1.41539 -0.35092,1.53237c-0.04679,0.20276 0.0039,0.30413 0.15207,0.30413L64.27486,125.87477L64.29826,129.8519L60.75393,129.96888L60.61356,125.85137L61.59614,125.85137c0.11697,0 0.16961,-0.10528 0.15792,-0.31583c-0.0117,-0.21055 -0.48934,-2.7567 -1.43294,-7.63844L60.20415,117.8971c-0.66286,2.47206 -1.09176,4.08631 -1.28672,4.84275c-0.19496,0.75644 -0.34118,1.32181 -0.43865,1.69613c-0.09748,0.37432 -0.17546,0.67845 -0.23395,0.9124c-0.05849,0.23395 -0.09553,0.36652 -0.11113,0.39771c-0.03119,0.08578 0.02729,0.12867 0.17546,0.12867L59.40872,125.87477L59.40872,129.92209L55.40819,129.8519L55.40819,125.89816L56.84698,125.89816c0.15597,0 0.19496,-0.15987 0.11697,-0.4796c-0.07018,-0.35092 -0.20081,-1.09176 -0.39186,-2.22252c-0.19106,-1.13075 -0.33728,-1.98272 -0.43865,-2.55589c-0.10138,-0.57318 -0.19886,-1.1327 -0.29244,-1.67858c-0.09358,-0.54588 -0.17741,-1.03522 -0.2515,-1.46803z"></path>
          <path d="M68.48594,125.87477c0.33533,0 0.50299,-0.30413 0.50299,-0.9124L68.98893,116.84433c0,-0.53808 -0.15987,-0.85391 -0.4796,-0.94749c-0.19496,-0.05459 -0.54588,-0.08188 -1.05277,-0.08188L66.78981,115.81496L66.78981,111.97819c0.70185,-0.0078 1.3725,-0.0156 2.01196,-0.02339L71.18806,111.9314L75.02482,111.9314L74.95464,117.9205L74.08902,117.94389c0.02339,-0.16376 0.03509,-0.4445 0.03509,-0.84222c0,-0.39771 -0.05849,-0.67065 -0.17546,-0.81882c-0.11697,-0.14817 -0.28074,-0.26514 -0.49129,-0.35092c-0.37432,-0.14037 -0.87731,-0.21055 -1.50897,-0.21055c-0.63166,0 -1.07032,0.03119 -1.31596,0.09358c-0.24565,0.06239 -0.42696,0.13647 -0.54393,0.22225c-0.15597,0.11697 -0.23395,0.30413 -0.23395,0.56148L69.85455,120.2249L71.52728,120.2249c0.13257,0 0.25734,-0.04874 0.37432,-0.14622c0.11697,-0.09748 0.18131,-0.23785 0.19301,-0.42111c0.0117,-0.18326 0.01755,-0.36847 0.01755,-0.55563c0,0 0,-0.17936 0,-0.53808c0,-0.20276 -0.0039,-0.40941 -0.0117,-0.61997L72.96607,117.8971L73.03625,123.74583L72.20573,123.74583L72.20573,122.9621c-0.0078,-0.21835 -0.0156,-0.4406 -0.02339,-0.66675c-0.0156,-0.4679 -0.06824,-0.76423 -0.15792,-0.88901c-0.08968,-0.12477 -0.17741,-0.21055 -0.26319,-0.25734c-0.13257,-0.07798 -0.25734,-0.11697 -0.37432,-0.11697c-0.24955,0 -0.51079,0.00585 -0.78373,0.01755c-0.27294,0.0117 -0.52249,0.02145 -0.74864,0.02924c-0.0078,0.56148 -0.0117,1.08786 -0.0117,1.57916L69.83115,123.93299L69.83115,124.89218c0,0.36652 0.07408,0.61607 0.22225,0.74864c0.21835,0.18716 0.42501,0.28074 0.61997,0.28074L73.83168,125.92156c0.56148,0 0.84222,-0.34313 0.84222,-1.02938L74.6622,123.94469c-0.0078,-0.17156 -0.0117,-0.34313 -0.0117,-0.51469L75.50442,123.4066L75.36405,129.96888c-1.34911,-0.07798 -2.27321,-0.11697 -2.7723,-0.11697L71.48049,129.8519L70.90732,129.8519L68.71989,129.8753c-0.56928,0.0078 -1.15805,0.0156 -1.76632,0.02339L66.95358,125.87477L68.48594,125.87477z"></path>
          <path x="0" y="0" d="M77.94918,115.81496c-0.07018,0 -0.38602,0.03119 -0.94749,0.09358L76.80283,112.07177c2.18352,-0.09358 3.54433,-0.14037 4.08241,-0.14037c0.53808,0 1.03328,0.06434 1.48558,0.19301c0.4523,0.12867 0.87731,0.36067 1.27502,0.696c0.9358,0.80323 1.40369,2.02366 1.40369,3.6613c0,1.80921 -0.38212,3.02184 -1.14635,3.63791c-0.18716,0.15597 -0.35092,0.29244 -0.49129,0.40941c1.71563,0.49909 2.57344,2.05875 2.57344,4.67898c0,2.3083 -0.77983,3.77048 -2.33949,4.38654c-0.52249,0.20276 -1.12685,0.30413 -1.81311,0.30413L77.07187,129.89869L77.04848,125.92156L78.24162,125.92156c0.30413,0 0.49129,-0.18716 0.56148,-0.56148c0.02339,-0.10138 0.03509,-0.18716 0.03509,-0.25734L78.83819,117.07828c0,-0.84222 -0.29634,-1.26332 -0.88901,-1.26332z M79.7038,125.00915c0,0.32753 0.07798,0.54978 0.23395,0.66675c0.21835,0.16376 0.4484,0.24565 0.69015,0.24565L81.552,125.92156c1.19314,0 1.91448,-0.05069 2.16403,-0.15207c0.24955,-0.10138 0.4523,-0.24565 0.60827,-0.43281c0.30413,-0.38212 0.4562,-0.97869 0.4562,-1.78971c0,-0.70185 -0.21445,-1.28672 -0.64336,-1.75462c-0.41331,-0.4601 -0.96309,-0.69015 -1.64934,-0.69015L80.20679,121.10221c-0.24175,0 -0.38212,0.04679 -0.42111,0.14037c-0.05459,0.10918 -0.08188,0.28074 -0.08188,0.51469z M79.7272,119.83888c0.0078,0.17156 0.03314,0.28659 0.07603,0.34507c0.04289,0.05849 0.15402,0.08773 0.33338,0.08773L82.10178,120.27169c0.80323,0 1.3803,-0.40161 1.73122,-1.20484c0.14037,-0.31193 0.21055,-0.67455 0.21055,-1.08786c0,-0.41331 -0.04874,-0.73499 -0.14622,-0.96504c-0.09748,-0.23005 -0.2242,-0.42111 -0.38017,-0.57318c-0.15597,-0.15207 -0.32753,-0.26904 -0.51469,-0.35092c-0.18716,-0.08188 -0.36652,-0.14232 -0.53808,-0.18131c-0.23395,-0.06239 -0.49129,-0.09358 -0.77203,-0.09358L80.44074,115.81496c-0.21055,0 -0.38017,0.04874 -0.50884,0.14622c-0.12867,0.09748 -0.20471,0.29439 -0.2281,0.59072L79.7272,119.83888z"></path>
          <path d="M93.81093,125.2548L93.9513,116.5285c0,-0.24955 -0.05459,-0.42306 -0.16376,-0.52054c-0.10918,-0.09748 -0.28464,-0.14622 -0.52639,-0.14622L92.34875,115.86175L92.34875,111.9314L94.79352,111.9314c0.13257,0 0.32558,0.00975 0.57902,0.02924c0.25344,0.0195 0.52054,0.04094 0.80128,0.06434c0.28074,0.02339 0.58877,0.04679 0.9241,0.07018L97.12131,115.88514L96.34928,115.88514L98.19747,125.711L100.3732,115.93193L99.70645,115.93193L99.80003,112.02498c0.28854,-0.0156 0.56538,-0.03119 0.83052,-0.04679c0.51469,-0.03119 1.00598,-0.04679 1.47388,-0.04679L104.37373,112.00159L104.11639,115.88514c-0.14817,0 -0.29244,-0.0039 -0.43281,-0.0117c0,0 -0.20666,-0.0039 -0.61997,-0.0117c-0.14817,0 -0.26514,0.05264 -0.35092,0.15792c-0.08578,0.10528 -0.12867,0.2359 -0.12867,0.39186L102.40856,125.2782c0,0.38212 0.21055,0.57318 0.63166,0.57318L104.16318,125.85137L104.0696,129.89869L99.84682,129.8753L99.917,125.87477L100.92298,125.87477c0.38992,0 0.58487,-0.23005 0.58487,-0.69015c0,-0.21835 0.07018,-3.31818 0.21055,-9.29948L101.309,115.90854L98.5367,127.79315L97.76467,127.81654L95.43688,115.90854L94.8637,115.90854c-0.11697,4.95972 -0.17546,7.74371 -0.17546,8.35198c0,0.60827 0.0039,0.95139 0.0117,1.02938c0.0078,0.07798 0.01365,0.15597 0.01755,0.23395c0.0039,0.07798 0.02145,0.14427 0.05264,0.19886c0.07018,0.11697 0.15987,0.17546 0.26904,0.17546c0.10918,0 0.56928,0.0156 1.3803,0.04679L96.20891,129.96888L91.89255,129.8753L91.89255,125.87477L93.37812,125.87477c0.17936,0 0.29634,-0.04679 0.35092,-0.14037c0.05459,-0.09358 0.08188,-0.25344 0.08188,-0.4796z"></path>
          <path x="0" y="0" d="M113.84867,115.79156c-1.09176,0.03119 -1.64544,0.04679 -1.66104,0.04679c-0.11697,0 -0.16376,0.07018 -0.14037,0.21055c0,0.03899 0,0.06824 0,0.08773c0,0.0195 0.02339,0.16181 0.07018,0.42696c0.04679,0.26514 0.10723,0.61217 0.18131,1.04107c0.07408,0.42891 0.15987,0.9163 0.25734,1.46218c0.09748,0.54588 0.19691,1.10346 0.29829,1.67274c0.10138,0.56928 0.20276,1.13075 0.30413,1.68443c0.10138,0.55368 0.19106,1.04887 0.26904,1.48558c0.20276,1.13855 0.33143,1.76632 0.38602,1.88329c0.05459,0.11697 0.15987,0.17546 0.31583,0.17546L115.04181,125.96835L115.0886,129.94548L110.79563,129.8519L110.74884,125.94495L112.16423,125.94495c0.19496,0 0.33923,-0.07603 0.43281,-0.2281c0.09358,-0.15207 0.13452,-0.26904 0.12282,-0.35092c-0.0117,-0.08188 -0.03509,-0.23005 -0.07018,-0.4445c-0.03509,-0.21445 -0.08188,-0.49519 -0.14037,-0.84222c-0.05849,-0.34702 -0.12477,-0.74474 -0.19886,-1.19314c-0.07408,-0.4484 -0.15402,-0.91435 -0.2398,-1.39785L108.78367,121.48822L107.99994,125.30159c-0.06239,0.26514 -0.07798,0.45035 -0.04679,0.55563c0.03119,0.10528 0.11697,0.15792 0.25734,0.15792L109.5557,126.01514L109.50891,129.92209L105.19255,129.92209L105.28613,125.96835L106.26872,125.96835c0.40551,0 0.63946,-0.13647 0.70185,-0.40941c0.03899,-0.15597 0.12867,-0.55563 0.26904,-1.19899c0.14037,-0.64336 0.27099,-1.23603 0.39186,-1.77801c0.12087,-0.54198 0.2437,-1.09566 0.36847,-1.66104c0.12477,-0.56538 0.2476,-1.12101 0.36847,-1.66689c0.12087,-0.54588 0.23005,-1.03912 0.32753,-1.47973c0.09748,-0.4406 0.17741,-0.80712 0.2398,-1.09956c0.06239,-0.29244 0.10138,-0.48155 0.11697,-0.56733c0.03899,-0.16376 -0.04289,-0.24565 -0.24565,-0.24565L107.40337,115.86175L107.35658,111.9314L113.82527,111.97819z M108.95913,120.646L111.93028,120.62261c-0.10138,-0.57707 -0.19496,-1.13855 -0.28074,-1.68443c-0.31973,-1.91058 -0.50494,-2.90487 -0.55563,-2.98285c-0.05069,-0.07798 -0.12282,-0.11697 -0.2164,-0.11697L110.17567,115.83835c-0.14037,0 -0.22615,0.07798 -0.25734,0.23395L108.95913,120.646z"></path>
          <path d="M117.90768,116.38813c0,-0.33533 -0.15207,-0.50299 -0.4562,-0.50299L116.09458,115.88514c0,-2.15233 0.02339,-3.43905 0.07018,-3.86016c0.29634,-0.0156 0.58487,-0.03119 0.86561,-0.04679c0.56148,-0.03119 1.12685,-0.04679 1.69613,-0.04679c0.49909,0 1.20094,0.0156 2.10554,0.04679L120.62149,115.81496c-0.15597,0.0078 -0.30413,0.01365 -0.4445,0.01755c-0.14037,0.0039 -0.27684,0.00585 -0.40941,0.00585L119.41665,115.83835c-0.18716,0 -0.33728,0.06629 -0.45035,0.19886c-0.11308,0.13257 -0.16961,0.31973 -0.16961,0.56148c0,0 -0.03119,2.89317 -0.09358,8.67951c0,0.36652 0.15207,0.54978 0.4562,0.54978L120.76186,125.82798L120.62149,129.8519c-0.83442,0.02339 -1.49143,0.04289 -1.97102,0.05849c-0.4796,0.0156 -0.85976,0.02729 -1.1405,0.03509c-0.28074,0.0078 -0.53418,0.0156 -0.76033,0.02339c-0.4679,0.0156 -0.76033,0.02339 -0.87731,0.02339L115.89572,128.35463L115.89572,125.75779L117.42809,125.75779c0.27294,0 0.40941,-0.15987 0.40941,-0.4796L117.89599,117.95559L117.90768,116.38813z"></path>
          <path d="M123.59265,125.85137c0.15597,0 0.23395,-0.14427 0.23395,-0.43281L123.82659,116.0957c0,-0.10918 -0.02534,-0.17156 -0.07603,-0.18716c-0.05069,-0.0156 -0.15402,-0.02339 -0.30998,-0.02339L121.88482,115.88514L121.81463,111.9314L126.65738,111.9548L126.61059,115.86175L125.01973,115.86175c-0.16376,0 -0.25539,0.04289 -0.27489,0.12867c-0.0195,0.08578 -0.02924,0.17156 -0.02924,0.25734L124.65711,123.67565L124.64542,125.2782c0,0.24955 0.05069,0.40746 0.15207,0.47375c0.10138,0.06629 0.24175,0.09943 0.42111,0.09943L126.21287,125.83967L127.74524,125.81628c0,0 0.32363,-0.0039 0.97089,-0.0117c0.41331,0 0.61997,-0.20666 0.61997,-0.61997L129.301,123.83941c-0.0156,-0.34313 -0.02729,-0.72524 -0.03509,-1.14635L130.10813,122.69306L130.08473,129.89869L121.9784,129.94548L121.9784,125.85137L123.59265,125.85137z"></path>
          <path d="M140.02757,125.00915L140.05096,122.9855c0.0078,-0.60047 0.0156,-1.26722 0.02339,-2.00026c-0.42891,-0.78763 -0.76813,-1.41539 -1.01768,-1.88329c-0.24955,-0.4679 -0.4484,-0.83637 -0.59657,-1.10541c-0.14817,-0.26904 -0.28464,-0.51664 -0.40941,-0.74279c-0.12477,-0.22615 -0.23005,-0.41916 -0.31583,-0.57902c-0.08578,-0.15987 -0.16766,-0.29829 -0.24565,-0.41526c-0.19496,-0.28074 -0.39381,-0.42111 -0.59657,-0.42111L136.647,115.83835c-0.13257,0 -0.27879,-0.00195 -0.43865,-0.00585c-0.15987,-0.0039 -0.34507,-0.00975 -0.55563,-0.01755L135.61763,111.9548L139.93399,111.9314L139.84041,115.79156c-0.74864,-0.03119 -1.16585,-0.04679 -1.25163,-0.04679c-0.08578,0 -0.15597,0.0195 -0.21055,0.05849c-0.05459,0.03899 -0.07798,0.08968 -0.07018,0.15207c0.0078,0.08578 0.05264,0.19691 0.13452,0.33338c0.08188,0.13647 0.15402,0.26319 0.2164,0.38017c0.06239,0.11697 0.14037,0.26514 0.23395,0.4445c0.09358,0.17936 0.19886,0.37822 0.31583,0.59657c0.11697,0.21835 0.27294,0.51274 0.4679,0.88316c0.19496,0.37042 0.464,0.87926 0.80712,1.52652c0.35872,-0.54588 0.64336,-0.98064 0.85391,-1.30427c0.21055,-0.32363 0.37822,-0.57902 0.50299,-0.76618c0.12477,-0.18716 0.23785,-0.36067 0.33923,-0.52054c0.10138,-0.15987 0.18911,-0.29634 0.26319,-0.40941c0.07408,-0.11308 0.14232,-0.2203 0.20471,-0.32168c0.24955,-0.38992 0.37432,-0.64336 0.37432,-0.76033c0,-0.11697 -0.15987,-0.17546 -0.4796,-0.17546L141.7354,115.86175L141.712,111.9314L145.99327,112.02498L145.8529,115.97872L144.70655,115.97872c-0.40551,0 -0.70965,0.16766 -0.9124,0.50299c-0.03119,0.04679 -0.09358,0.14622 -0.18716,0.29829c-0.09358,0.15207 -0.21055,0.33728 -0.35092,0.55563c-0.98259,1.49727 -1.75462,2.68262 -2.3161,3.55603c-0.02339,1.18534 -0.03899,2.01391 -0.04679,2.48571c-0.0078,0.4718 -0.01365,0.81687 -0.01755,1.03522c-0.0039,0.21835 -0.00585,0.40161 -0.00585,0.54978L140.86978,125.2782c0,0.20276 0.05654,0.34118 0.16961,0.41526c0.11308,0.07408 0.27879,0.11113 0.49714,0.11113L143.02212,125.80458L142.88175,129.89869L137.92203,129.89869L137.85184,125.89816L139.31402,125.89816c0.4757,0 0.71354,-0.19886 0.71354,-0.59657L140.02757,125.00915z"></path>
          <path x="0" y="0" d="M147.12792,126.57661L147.08113,115.30027L147.08113,114.35278c0,-0.71744 0.22615,-1.29842 0.67845,-1.74292c0.4367,-0.42111 0.92215,-0.63361 1.45633,-0.63751c0.53418,-0.0039 1.00793,-0.00975 1.42124,-0.01755L152.08764,111.9314L152.36838,111.9314c0.76423,0 1.3647,0.35092 1.80141,1.05277c0.35092,0.56148 0.52639,1.15415 0.52639,1.77801L154.75466,124.71672L154.76636,127.21997c0,1.22433 -0.52639,2.03926 -1.57916,2.44477c-0.31973,0.12477 -0.67065,0.18716 -1.05277,0.18716L149.30365,129.89869c-0.72524,0 -1.29062,-0.31193 -1.69613,-0.9358c-0.31973,-0.48349 -0.4796,-1.02548 -0.4796,-1.62595z M149.9704,125.94495L152.43857,125.89816c0.63166,0 1.05667,-0.29634 1.27502,-0.88901c0.07798,-0.21835 0.11697,-0.48739 0.11697,-0.80712L153.83056,117.68655c0,-1.13855 -0.58877,-1.70783 -1.76632,-1.70783L149.83003,115.97872c-0.88901,0 -1.46608,0.34702 -1.73122,1.04107c-0.09358,0.24175 -0.14037,0.48349 -0.14037,0.72524L147.95844,118.55216L147.99353,123.20775L147.99353,124.09675c0,0.65506 0.21445,1.14245 0.64336,1.46218c0.34313,0.25734 0.78763,0.38602 1.33351,0.38602z"></path>
          <path d="M157.95976,127.74636L157.93637,116.29455c0,-0.28854 -0.13647,-0.43281 -0.40941,-0.43281L156.34551,115.86175L156.36891,111.97819L160.5449,111.9314L160.52151,115.74477c-0.21835,0.0078 -0.41331,0.0156 -0.58487,0.02339c-0.33533,0.0156 -0.58877,0.02339 -0.76033,0.02339c-0.24175,0 -0.36262,0.13647 -0.36262,0.40941L158.81368,124.55295c0,0.50689 0.15597,0.88511 0.4679,1.13465c0.21835,0.18716 0.4796,0.28074 0.78373,0.28074L162.51007,125.96835c0.55368,0 0.9358,-0.26514 1.14635,-0.79543c0.07018,-0.17936 0.10528,-0.36262 0.10528,-0.54978L163.7617,122.85682L163.7383,117.476L163.7383,116.16588c0,-0.24955 -0.15207,-0.37432 -0.4562,-0.37432L162.13575,115.79156L162.04217,111.9548L166.20647,111.9314L166.25326,115.79156c-0.18716,0.0078 -0.35677,0.01365 -0.50884,0.01755c-0.15207,0.0039 -0.30218,0.00585 -0.45035,0.00585L164.97823,115.81496c-0.23395,0 -0.35092,0.13647 -0.35092,0.40941L164.6858,124.65823L164.6975,127.67617c0,0.79543 -0.09163,1.31986 -0.27489,1.57331c-0.18326,0.25344 -0.38797,0.42501 -0.61412,0.51469c-0.22615,0.08968 -0.51469,0.13452 -0.86561,0.13452L159.74947,129.89869c-1.19314,0 -1.78971,-0.71744 -1.78971,-2.15233z"></path>
          <path d="M173.00269,125.98004L173.82151,125.96835c0.28854,0 0.43281,-0.21445 0.43281,-0.64336L174.25432,116.11909c0,-0.13257 -0.02534,-0.2164 -0.07603,-0.2515c-0.05069,-0.03509 -0.16181,-0.05264 -0.33338,-0.05264L172.42951,115.81496L172.42951,111.9314L174.7807,111.9314c0.25734,0 0.40551,0.05264 0.4445,0.15792c0.03899,0.10528 0.07408,0.20471 0.10528,0.29829L179.44798,125.58233L179.57666,125.53554c0.0156,-1.64544 0.02924,-2.93996 0.04094,-3.88355c0.0117,-0.94359 0.0195,-1.69028 0.02339,-2.24006c0.0039,-0.54978 0.0078,-1.04692 0.0117,-1.49143c0.0039,-0.4445 0.0078,-0.81492 0.0117,-1.11126c0.0039,-0.29634 0.00585,-0.4757 0.00585,-0.53808c0,-0.35092 -0.21445,-0.52639 -0.64336,-0.52639L178.23145,115.75647c-0.13257,0.0078 -0.25344,0.0117 -0.36262,0.0117L177.70506,111.97819c1.18534,-0.03119 1.91058,-0.04679 2.17573,-0.04679L182.27877,111.9314L182.1384,115.74477c-0.14817,0 -0.28854,-0.0039 -0.42111,-0.0117L181.08563,115.72138c-0.36652,0 -0.54978,0.19886 -0.54978,0.59657L180.33699,129.75832c0,0.18716 -0.06239,0.28074 -0.18716,0.28074c-0.14817,0 -0.25344,-0.09358 -0.31583,-0.28074L175.44746,115.81496c-0.02339,-0.11697 -0.08188,-0.17156 -0.17546,-0.16376c-0.08578,0.0156 -0.12867,0.07018 -0.12867,0.16376L175.14332,125.07934c0,0.51469 0.19886,0.77203 0.59657,0.77203L176.95643,125.85137L177.10849,129.92209L172.38272,129.8753L172.38272,125.99174c0.21835,0 0.42501,-0.0039 0.61997,-0.0117z"></path>
          <path d="M184.72354,125.87477c0.33533,0 0.50299,-0.30413 0.50299,-0.9124L185.22653,116.84433c0,-0.53808 -0.15987,-0.85391 -0.4796,-0.94749c-0.19496,-0.05459 -0.54588,-0.08188 -1.05277,-0.08188L183.02741,115.81496L183.02741,111.97819c0.70185,-0.0078 1.3725,-0.0156 2.01196,-0.02339L187.42565,111.9314L191.26241,111.9314L191.19223,117.9205L190.32662,117.94389c0.02339,-0.16376 0.03509,-0.4445 0.03509,-0.84222c0,-0.39771 -0.05849,-0.67065 -0.17546,-0.81882c-0.11697,-0.14817 -0.28074,-0.26514 -0.49129,-0.35092c-0.37432,-0.14037 -0.87731,-0.21055 -1.50897,-0.21055c-0.63166,0 -1.07032,0.03119 -1.31596,0.09358c-0.24565,0.06239 -0.42696,0.13647 -0.54393,0.22225c-0.15597,0.11697 -0.23395,0.30413 -0.23395,0.56148L186.09214,120.2249L187.76487,120.2249c0.13257,0 0.25734,-0.04874 0.37432,-0.14622c0.11697,-0.09748 0.18131,-0.23785 0.19301,-0.42111c0.0117,-0.18326 0.01755,-0.36847 0.01755,-0.55563c0,0 0,-0.17936 0,-0.53808c0,-0.20276 -0.0039,-0.40941 -0.0117,-0.61997L189.20366,117.8971L189.27385,123.74583L188.44333,123.74583L188.44333,122.9621c-0.0078,-0.21835 -0.0156,-0.4406 -0.02339,-0.66675c-0.0156,-0.4679 -0.06824,-0.76423 -0.15792,-0.88901c-0.08968,-0.12477 -0.17741,-0.21055 -0.26319,-0.25734c-0.13257,-0.07798 -0.25734,-0.11697 -0.37432,-0.11697c-0.24955,0 -0.51079,0.00585 -0.78373,0.01755c-0.27294,0.0117 -0.52249,0.02145 -0.74864,0.02924c-0.0078,0.56148 -0.0117,1.08786 -0.0117,1.57916L186.06874,123.93299L186.06874,124.89218c0,0.36652 0.07408,0.61607 0.22225,0.74864c0.21835,0.18716 0.42501,0.28074 0.61997,0.28074L190.06927,125.92156c0.56148,0 0.84222,-0.34313 0.84222,-1.02938L190.89979,123.94469c-0.0078,-0.17156 -0.0117,-0.34313 -0.0117,-0.51469L191.74201,123.4066L191.60164,129.96888c-1.34911,-0.07798 -2.27321,-0.11697 -2.7723,-0.11697L187.71808,129.8519L187.14491,129.8519L184.95748,129.8753c-0.56928,0.0078 -1.15805,0.0156 -1.76632,0.02339L183.19117,125.87477L184.72354,125.87477z"></path>
          <path d="M194.13999,115.90854L193.39135,115.92023c-0.18716,0.0078 -0.38992,0.0117 -0.60827,0.0117L192.7012,111.9548L197.11114,111.9314L197.04095,115.83835c-0.21835,0.0078 -0.41331,0.0156 -0.58487,0.02339c-0.34313,0.0156 -0.59462,0.02339 -0.75449,0.02339c-0.15987,0 -0.24955,0.02534 -0.26904,0.07603c-0.0195,0.05069 -0.02145,0.11892 -0.00585,0.20471c0.0156,0.08578 0.05654,0.27684 0.12282,0.57318c0.06629,0.29634 0.14817,0.66675 0.24565,1.11126c0.09748,0.4445 0.20666,0.94164 0.32753,1.49143c0.12087,0.54978 0.2437,1.10931 0.36847,1.67858c0.12477,0.56928 0.2476,1.12491 0.36847,1.66689c0.12087,0.54198 0.2281,1.02743 0.32168,1.45633c0.17156,0.77983 0.28074,1.25163 0.32753,1.41539c0.06239,0.22615 0.17156,0.33923 0.32753,0.33923L198.2107,125.90986c0.08578,0.0078 0.17546,0.0117 0.26904,0.0117c0.16376,0 0.27684,-0.12087 0.33923,-0.36262c0,-0.0156 0.08188,-0.37627 0.24565,-1.08201c0.16376,-0.70575 0.30803,-1.33741 0.43281,-1.89499c0.12477,-0.55758 0.25539,-1.12685 0.39186,-1.70783c0.13647,-0.58097 0.26904,-1.1522 0.39771,-1.71368c0.12867,-0.56148 0.2437,-1.06837 0.34507,-1.52067c0.19496,-0.85001 0.31388,-1.35301 0.35677,-1.50897c0.04289,-0.15597 0.03119,-0.2398 -0.03509,-0.2515c-0.06629,-0.0117 -0.14622,-0.01755 -0.2398,-0.01755L199.07631,115.86175L198.98273,111.9548c0.29634,0 0.58877,-0.0039 0.87731,-0.0117L201.4041,111.9314L203.39267,111.9314L203.22891,115.86175c-0.12477,0 -0.24565,-0.0039 -0.36262,-0.0117L202.31651,115.83835c-0.17936,0 -0.29244,0.10138 -0.33923,0.30413L199.64949,125.711c0,0.06239 0.00975,0.10138 0.02924,0.11697c0.0195,0.0156 0.05264,0.02339 0.09943,0.02339c0.04679,0 0.36652,0.0156 0.95919,0.04679L200.71395,129.92209L195.4618,129.8753L195.34482,125.82798L196.30401,125.82798c0.14037,0 0.23005,-0.01755 0.26904,-0.05264c0.03899,-0.03509 0.05264,-0.07408 0.04094,-0.11697c-0.0117,-0.04289 -0.04874,-0.20666 -0.11113,-0.49129c-0.06239,-0.28464 -0.14622,-0.64921 -0.2515,-1.09371c-0.10528,-0.4445 -0.22225,-0.94944 -0.35092,-1.51482c-0.12867,-0.56538 -0.25929,-1.1405 -0.39186,-1.72537c-0.13257,-0.58487 -0.26319,-1.15805 -0.39186,-1.71953c-0.12867,-0.56148 -0.2437,-1.06057 -0.34507,-1.49727c-0.22615,-0.99038 -0.34702,-1.52262 -0.36262,-1.5967c-0.0156,-0.07408 -0.10528,-0.11113 -0.26904,-0.11113z"></path>
          <path d="M205.73216,125.87477c0.33533,0 0.50299,-0.30413 0.50299,-0.9124L206.23515,116.84433c0,-0.53808 -0.15987,-0.85391 -0.4796,-0.94749c-0.19496,-0.05459 -0.54588,-0.08188 -1.05277,-0.08188L204.03603,115.81496L204.03603,111.97819c0.70185,-0.0078 1.3725,-0.0156 2.01196,-0.02339L208.43427,111.9314L212.27104,111.9314L212.20085,117.9205L211.33524,117.94389c0.02339,-0.16376 0.03509,-0.4445 0.03509,-0.84222c0,-0.39771 -0.05849,-0.67065 -0.17546,-0.81882c-0.11697,-0.14817 -0.28074,-0.26514 -0.49129,-0.35092c-0.37432,-0.14037 -0.87731,-0.21055 -1.50897,-0.21055c-0.63166,0 -1.07032,0.03119 -1.31596,0.09358c-0.24565,0.06239 -0.42696,0.13647 -0.54393,0.22225c-0.15597,0.11697 -0.23395,0.30413 -0.23395,0.56148L207.10076,120.2249L208.7735,120.2249c0.13257,0 0.25734,-0.04874 0.37432,-0.14622c0.11697,-0.09748 0.18131,-0.23785 0.19301,-0.42111c0.0117,-0.18326 0.01755,-0.36847 0.01755,-0.55563c0,0 0,-0.17936 0,-0.53808c0,-0.20276 -0.0039,-0.40941 -0.0117,-0.61997L210.21229,117.8971L210.28247,123.74583L209.45195,123.74583L209.45195,122.9621c-0.0078,-0.21835 -0.0156,-0.4406 -0.02339,-0.66675c-0.0156,-0.4679 -0.06824,-0.76423 -0.15792,-0.88901c-0.08968,-0.12477 -0.17741,-0.21055 -0.26319,-0.25734c-0.13257,-0.07798 -0.25734,-0.11697 -0.37432,-0.11697c-0.24955,0 -0.51079,0.00585 -0.78373,0.01755c-0.27294,0.0117 -0.52249,0.02145 -0.74864,0.02924c-0.0078,0.56148 -0.0117,1.08786 -0.0117,1.57916L207.07737,123.93299L207.07737,124.89218c0,0.36652 0.07408,0.61607 0.22225,0.74864c0.21835,0.18716 0.42501,0.28074 0.61997,0.28074L211.0779,125.92156c0.56148,0 0.84222,-0.34313 0.84222,-1.02938L211.90842,123.94469c-0.0078,-0.17156 -0.0117,-0.34313 -0.0117,-0.51469L212.75063,123.4066L212.61026,129.96888c-1.34911,-0.07798 -2.27321,-0.11697 -2.7723,-0.11697L208.72671,129.8519L208.15353,129.8519L205.96611,129.8753c-0.56928,0.0078 -1.15805,0.0156 -1.76632,0.02339L204.1998,125.87477L205.73216,125.87477z"></path>
          <path x="0" y="0" d="M216.06101,116.22437c0,-0.24175 -0.17546,-0.36262 -0.52639,-0.36262L215.23049,115.86175c-0.15597,0 -0.32753,-0.00195 -0.51469,-0.00585c-0.18716,-0.0039 -0.40161,-0.00975 -0.64336,-0.01755L214.07245,111.9548c0.67845,0 1.23408,-0.00195 1.66689,-0.00585c0.43281,-0.0039 0.78568,-0.00585 1.05862,-0.00585L218.31862,111.9314L218.91519,111.9314c1.94958,0 3.17781,0.96309 3.6847,2.88927c0.13257,0.50689 0.19886,1.06837 0.19886,1.68443c0,0.61607 -0.05069,1.11906 -0.15207,1.50897c-0.10138,0.38992 -0.2359,0.72524 -0.40356,1.00598c-0.16766,0.28074 -0.35677,0.50884 -0.56733,0.6843c-0.21055,0.17546 -0.42501,0.31388 -0.64336,0.41526c-0.37432,0.18716 -0.76813,0.30023 -1.18144,0.33923L219.85099,120.52903c0.38212,0.10918 0.6921,0.33338 0.92995,0.6726c0.23785,0.33923 0.35677,0.76228 0.35677,1.26917L221.13771,125.58233c0,0.22615 0.05849,0.39186 0.17546,0.49714c0.11697,0.10528 0.25344,0.15792 0.40941,0.15792c0.15597,0 0.29049,-0.06824 0.40356,-0.20471c0.11308,-0.13647 0.16961,-0.27879 0.16961,-0.42696c0,0 0,-0.18326 0,-0.54978c0,-0.21835 0.00195,-0.4484 0.00585,-0.69015c0.0039,-0.24175 0.00975,-0.51469 0.01755,-0.81882L223.12627,123.52358L223.12627,127.81654c0,1.00598 -0.21835,1.68443 -0.65506,2.03536c-0.19496,0.15597 -0.464,0.23395 -0.80712,0.23395c-0.86561,0 -1.34131,-0.50299 -1.42709,-1.50897c-0.02339,-0.28074 -0.03509,-0.55758 -0.03509,-0.83052L220.28379,122.56439c0,-0.67065 -0.23785,-1.17364 -0.71354,-1.50897c-0.34313,-0.23395 -0.70575,-0.35092 -1.08786,-0.35092L217.26585,120.70449c-0.14817,0 -0.22225,0.07018 -0.22225,0.21055L217.0436,121.26597L217.0202,124.97406L217.0202,125.39517c0,0.31973 0.13647,0.4796 0.40941,0.4796L218.8684,125.87477L218.84501,129.8519L214.09584,129.92209L214.09584,125.87477L215.60481,125.87477c0.33533,0 0.50299,-0.19886 0.50299,-0.59657L216.1078,124.822L216.06101,116.68057z M217.31264,115.83835c-0.21055,0 -0.31583,0.12867 -0.31583,0.38602c0,0.07018 -0.00195,0.25929 -0.00585,0.56733c-0.0039,0.30803 -0.00585,0.6843 -0.00585,1.1288L216.97341,118.99666L216.97341,119.61663c0,0.14817 0.07018,0.22225 0.21055,0.22225L218.15486,119.85058L219.58195,119.86228c0.85001,0 1.46608,-0.35092 1.8482,-1.05277c0.14037,-0.25734 0.21055,-0.57902 0.21055,-0.96504c0,-0.38602 -0.06044,-0.70575 -0.18131,-0.95919c-0.12087,-0.25344 -0.26709,-0.45425 -0.43865,-0.60242c-0.31193,-0.28074 -0.63946,-0.42111 -0.98259,-0.42111L217.31264,115.83835z"></path>
          <path d="M230.47812,117.49354c0,0 -0.01852,-0.1082 -0.05556,-0.3246c-0.03704,-0.2164 -0.07896,-0.45913 -0.12575,-0.72817c-0.04679,-0.26904 -0.07798,-0.4406 -0.09358,-0.51469c-0.0156,-0.07408 -0.07018,-0.11113 -0.16376,-0.11113L229.08028,115.81496L229.01009,111.97819L232.94044,111.9314L232.96383,115.83835L231.2794,115.83835c-0.14037,0 -0.19496,0.07798 -0.16376,0.23395c0.0078,0.02339 0.03314,0.15792 0.07603,0.40356c0.04289,0.24565 0.09943,0.56538 0.16961,0.95919c0.07018,0.39381 0.14817,0.83832 0.23395,1.33351c0.08578,0.49519 0.20471,1.17364 0.35677,2.03536c0.15207,0.86171 0.36067,2.0568 0.62581,3.58527L234.84712,114.92595L235.64255,114.94935L237.17492,123.97978c0.69405,-3.11932 1.13465,-5.09034 1.32181,-5.91306c0.18716,-0.82272 0.30803,-1.35495 0.36262,-1.5967c0.05459,-0.24175 0.08578,-0.37432 0.09358,-0.39771c0.02339,-0.12477 -0.03509,-0.18716 -0.17546,-0.18716L237.15152,115.88514L237.15152,111.9314L240.9181,111.9314L240.89471,115.86175L240.12267,115.86175c-0.16376,0 -0.26124,0.07018 -0.29244,0.21055c0,0.0078 -0.03119,0.14817 -0.09358,0.42111c-0.06239,0.27294 -0.14232,0.62776 -0.2398,1.06447c-0.09748,0.4367 -0.2086,0.9358 -0.33338,1.49727c-0.12477,0.56148 -0.2515,1.1366 -0.38017,1.72537c-0.12867,0.58877 -0.25539,1.16585 -0.38017,1.73122c-0.12477,0.56538 -0.23785,1.07422 -0.33923,1.52652c-0.20276,0.9046 -0.31973,1.41539 -0.35092,1.53237c-0.04679,0.20276 0.0039,0.30413 0.15207,0.30413L239.16348,125.87477L239.18688,129.8519L235.64255,129.96888L235.50218,125.85137L236.48477,125.85137c0.11697,0 0.16961,-0.10528 0.15792,-0.31583c-0.0117,-0.21055 -0.48934,-2.7567 -1.43294,-7.63844L235.09277,117.8971c-0.66286,2.47206 -1.09176,4.08631 -1.28672,4.84275c-0.19496,0.75644 -0.34118,1.32181 -0.43865,1.69613c-0.09748,0.37432 -0.17546,0.67845 -0.23395,0.9124c-0.05849,0.23395 -0.09553,0.36652 -0.11113,0.39771c-0.03119,0.08578 0.02729,0.12867 0.17546,0.12867L234.29734,125.87477L234.29734,129.92209L230.29681,129.8519L230.29681,125.89816L231.7356,125.89816c0.15597,0 0.19496,-0.15987 0.11697,-0.4796c-0.07018,-0.35092 -0.20081,-1.09176 -0.39186,-2.22252c-0.19106,-1.13075 -0.33728,-1.98272 -0.43865,-2.55589c-0.10138,-0.57318 -0.19886,-1.1327 -0.29244,-1.67858c-0.09358,-0.54588 -0.17741,-1.03522 -0.2515,-1.46803z"></path>
          <path d="M243.90095,116.38813c0,-0.33533 -0.15207,-0.50299 -0.4562,-0.50299L242.08785,115.88514c0,-2.15233 0.02339,-3.43905 0.07018,-3.86016c0.29634,-0.0156 0.58487,-0.03119 0.86561,-0.04679c0.56148,-0.03119 1.12685,-0.04679 1.69613,-0.04679c0.49909,0 1.20094,0.0156 2.10554,0.04679L246.61476,115.81496c-0.15597,0.0078 -0.30413,0.01365 -0.4445,0.01755c-0.14037,0.0039 -0.27684,0.00585 -0.40941,0.00585L245.40992,115.83835c-0.18716,0 -0.33728,0.06629 -0.45035,0.19886c-0.11308,0.13257 -0.16961,0.31973 -0.16961,0.56148c0,0 -0.03119,2.89317 -0.09358,8.67951c0,0.36652 0.15207,0.54978 0.4562,0.54978L246.75513,125.82798L246.61476,129.8519c-0.83442,0.02339 -1.49143,0.04289 -1.97102,0.05849c-0.4796,0.0156 -0.85976,0.02729 -1.1405,0.03509c-0.28074,0.0078 -0.53418,0.0156 -0.76033,0.02339c-0.4679,0.0156 -0.76033,0.02339 -0.87731,0.02339L241.88899,128.35463L241.88899,125.75779L243.42136,125.75779c0.27294,0 0.40941,-0.15987 0.40941,-0.4796L243.88925,117.95559L243.90095,116.38813z"></path>
          <path d="M249.58591,125.85137c0.15597,0 0.23395,-0.14427 0.23395,-0.43281L249.81986,116.0957c0,-0.10918 -0.02534,-0.17156 -0.07603,-0.18716c-0.05069,-0.0156 -0.15402,-0.02339 -0.30998,-0.02339L247.87809,115.88514L247.8079,111.9314L252.65065,111.9548L252.60386,115.86175L251.013,115.86175c-0.16376,0 -0.25539,0.04289 -0.27489,0.12867c-0.0195,0.08578 -0.02924,0.17156 -0.02924,0.25734L250.65038,123.67565L250.63868,125.2782c0,0.24955 0.05069,0.40746 0.15207,0.47375c0.10138,0.06629 0.24175,0.09943 0.42111,0.09943L252.20614,125.83967L253.73851,125.81628c0,0 0.32363,-0.0039 0.97089,-0.0117c0.41331,0 0.61997,-0.20666 0.61997,-0.61997L255.29427,123.83941c-0.0156,-0.34313 -0.02729,-0.72524 -0.03509,-1.14635L256.1014,122.69306L256.078,129.89869L247.97167,129.94548L247.97167,125.85137L249.58591,125.85137z"></path>
          <path d="M258.8386,125.85137c0.15597,0 0.23395,-0.14427 0.23395,-0.43281L259.07255,116.0957c0,-0.10918 -0.02534,-0.17156 -0.07603,-0.18716c-0.05069,-0.0156 -0.15402,-0.02339 -0.30998,-0.02339L257.13077,115.88514L257.06059,111.9314L261.90333,111.9548L261.85654,115.86175L260.26569,115.86175c-0.16376,0 -0.25539,0.04289 -0.27489,0.12867c-0.0195,0.08578 -0.02924,0.17156 -0.02924,0.25734L259.90307,123.67565L259.89137,125.2782c0,0.24955 0.05069,0.40746 0.15207,0.47375c0.10138,0.06629 0.24175,0.09943 0.42111,0.09943L261.45883,125.83967L262.9912,125.81628c0,0 0.32363,-0.0039 0.97089,-0.0117c0.41331,0 0.61997,-0.20666 0.61997,-0.61997L264.54696,123.83941c-0.0156,-0.34313 -0.02729,-0.72524 -0.03509,-1.14635L265.35408,122.69306L265.33069,129.89869L257.22435,129.94548L257.22435,125.85137L258.8386,125.85137z"></path>
          <path d="M272.93403,127.74636L272.91064,116.29455c0,-0.28854 -0.13647,-0.43281 -0.40941,-0.43281L271.31978,115.86175L271.34318,111.97819L275.51917,111.9314L275.49577,115.74477c-0.21835,0.0078 -0.41331,0.0156 -0.58487,0.02339c-0.33533,0.0156 -0.58877,0.02339 -0.76033,0.02339c-0.24175,0 -0.36262,0.13647 -0.36262,0.40941L273.78794,124.55295c0,0.50689 0.15597,0.88511 0.4679,1.13465c0.21835,0.18716 0.4796,0.28074 0.78373,0.28074L277.48434,125.96835c0.55368,0 0.9358,-0.26514 1.14635,-0.79543c0.07018,-0.17936 0.10528,-0.36262 0.10528,-0.54978L278.73597,122.85682L278.71257,117.476L278.71257,116.16588c0,-0.24955 -0.15207,-0.37432 -0.4562,-0.37432L277.11002,115.79156L277.01644,111.9548L281.18073,111.9314L281.22752,115.79156c-0.18716,0.0078 -0.35677,0.01365 -0.50884,0.01755c-0.15207,0.0039 -0.30218,0.00585 -0.45035,0.00585L279.9525,115.81496c-0.23395,0 -0.35092,0.13647 -0.35092,0.40941L279.66007,124.65823L279.67176,127.67617c0,0.79543 -0.09163,1.31986 -0.27489,1.57331c-0.18326,0.25344 -0.38797,0.42501 -0.61412,0.51469c-0.22615,0.08968 -0.51469,0.13452 -0.86561,0.13452L274.72374,129.89869c-1.19314,0 -1.78971,-0.71744 -1.78971,-2.15233z"></path>
          <path d="M282.93535,116.9847L282.94705,114.61012c0,-1.59085 0.69405,-2.48376 2.08215,-2.67872c0.39771,-0.06239 0.82662,-0.09358 1.28672,-0.09358c0.74864,0 1.3881,0.15987 1.91838,0.4796c0.22615,0.14037 0.40551,0.30023 0.53808,0.4796L288.86596,112.79701L288.86596,111.9314L289.77836,111.9314L289.73157,118.25972L288.88936,118.25972L288.88936,116.77415c0,-0.35092 -0.10333,-0.62386 -0.30998,-0.81882c-0.20666,-0.19496 -0.50884,-0.29244 -0.90655,-0.29244L285.0292,115.66289c-0.33533,0 -0.61802,0.09748 -0.84807,0.29244c-0.23005,0.19496 -0.34507,0.4718 -0.34507,0.83052c0,0.35872 -0.0078,0.7116 -0.02339,1.05862c-0.0156,0.34702 -0.01755,0.6804 -0.00585,1.00013c0.0117,0.31973 0.04874,0.56343 0.11113,0.73109c0.06239,0.16766 0.15207,0.29439 0.26904,0.38017c0.18716,0.14817 0.55758,0.22225 1.11126,0.22225L287.49736,120.17811c0.87341,0 1.56356,0.31973 2.07045,0.95919c0.42891,0.54588 0.64336,1.20484 0.64336,1.97687L290.21117,126.97433c0,1.09956 -0.26124,1.87159 -0.78373,2.3161c-0.55368,0.4679 -1.51677,0.70185 -2.88927,0.70185c-1.34131,0 -2.3083,-0.4367 -2.90097,-1.31011L283.49683,128.68216L283.49683,129.89869L282.63122,129.89869L282.80668,122.47081L283.61381,122.4942c-0.0078,0.35872 -0.01365,0.69795 -0.01755,1.01768c-0.0039,0.31973 -0.00585,0.63946 -0.00585,0.95919L283.59041,125.30159c0,0.4601 0.05849,0.74864 0.17546,0.86561c0.17936,0.18716 0.4406,0.28074 0.78373,0.28074L286.00009,126.45964L288.04714,126.47134c0.73304,0 1.14635,-0.29244 1.23993,-0.87731c0.02339,-0.17936 0.03509,-0.38212 0.03509,-0.60827L289.32216,123.24284c0,-1.3725 -0.72914,-2.05875 -2.18742,-2.05875L285.34503,121.18409c-0.72524,0 -1.22823,-0.08968 -1.50897,-0.26904c-0.60827,-0.39771 -0.9124,-1.17364 -0.9124,-2.32779L282.93535,116.9847z"></path>
          <path d="M293.14723,125.87477c0.33533,0 0.50299,-0.30413 0.50299,-0.9124L293.65022,116.84433c0,-0.53808 -0.15987,-0.85391 -0.4796,-0.94749c-0.19496,-0.05459 -0.54588,-0.08188 -1.05277,-0.08188L291.4511,115.81496L291.4511,111.97819c0.70185,-0.0078 1.3725,-0.0156 2.01196,-0.02339L295.84934,111.9314L299.68611,111.9314L299.61592,117.9205L298.75031,117.94389c0.02339,-0.16376 0.03509,-0.4445 0.03509,-0.84222c0,-0.39771 -0.05849,-0.67065 -0.17546,-0.81882c-0.11697,-0.14817 -0.28074,-0.26514 -0.49129,-0.35092c-0.37432,-0.14037 -0.87731,-0.21055 -1.50897,-0.21055c-0.63166,0 -1.07032,0.03119 -1.31596,0.09358c-0.24565,0.06239 -0.42696,0.13647 -0.54393,0.22225c-0.15597,0.11697 -0.23395,0.30413 -0.23395,0.56148L294.51583,120.2249L296.18857,120.2249c0.13257,0 0.25734,-0.04874 0.37432,-0.14622c0.11697,-0.09748 0.18131,-0.23785 0.19301,-0.42111c0.0117,-0.18326 0.01755,-0.36847 0.01755,-0.55563c0,0 0,-0.17936 0,-0.53808c0,-0.20276 -0.0039,-0.40941 -0.0117,-0.61997L297.62735,117.8971L297.69754,123.74583L296.86702,123.74583L296.86702,122.9621c-0.0078,-0.21835 -0.0156,-0.4406 -0.02339,-0.66675c-0.0156,-0.4679 -0.06824,-0.76423 -0.15792,-0.88901c-0.08968,-0.12477 -0.17741,-0.21055 -0.26319,-0.25734c-0.13257,-0.07798 -0.25734,-0.11697 -0.37432,-0.11697c-0.24955,0 -0.51079,0.00585 -0.78373,0.01755c-0.27294,0.0117 -0.52249,0.02145 -0.74864,0.02924c-0.0078,0.56148 -0.0117,1.08786 -0.0117,1.57916L294.49244,123.93299L294.49244,124.89218c0,0.36652 0.07408,0.61607 0.22225,0.74864c0.21835,0.18716 0.42501,0.28074 0.61997,0.28074L298.49297,125.92156c0.56148,0 0.84222,-0.34313 0.84222,-1.02938L299.32348,123.94469c-0.0078,-0.17156 -0.0117,-0.34313 -0.0117,-0.51469L300.1657,123.4066L300.02533,129.96888c-1.34911,-0.07798 -2.27321,-0.11697 -2.7723,-0.11697L296.14178,129.8519L295.5686,129.8519L293.38118,129.8753c-0.56928,0.0078 -1.15805,0.0156 -1.76632,0.02339L291.61486,125.87477L293.14723,125.87477z"></path>
        </g>
      </g>
      <g></g>
    </g>
  </g>
  <g></g>
</g>
</svg>